<?xml version="1.0" encoding="utf-8"?><svg version="1.1" id="Layer_1" xmlns="http://www.w3.org/2000/svg" xmlns:xlink="http://www.w3.org/1999/xlink" x="0px" y="0px"
	 viewBox="0 0 1920 700" style="enable-background:new 0 0 1920 700;" xml:space="preserve"><style type="text/css">  
	.st0{clip-path:url(#SVGID_2_);}
	.st1{fill:#FFFFFF;}
	.st2{fill:#181A2D;}
	.st3{fill:#5F66AF;}
	.st4{fill:none;stroke:#231F20;stroke-width:3;stroke-linecap:round;stroke-linejoin:round;}
	.st5{fill:#24C0F1;stroke:#231F20;stroke-width:3;stroke-linecap:round;stroke-linejoin:round;}
	.st6{fill:#64E4F9;stroke:#231F20;stroke-width:3;stroke-linecap:round;stroke-linejoin:round;}
	.st7{fill:#0498BA;stroke:#231F20;stroke-width:3;stroke-linecap:round;stroke-linejoin:round;}
	.st8{fill:#D859A1;stroke:#231F20;stroke-width:3;stroke-linecap:round;stroke-linejoin:round;}
	.st9{fill:#D985B4;stroke:#231F20;stroke-width:3;stroke-linecap:round;stroke-linejoin:round;}
	.st10{fill:#A34379;stroke:#231F20;stroke-width:3;stroke-linecap:round;stroke-linejoin:round;}
	.st11{fill:#F47721;stroke:#231F20;stroke-width:3;stroke-linecap:round;stroke-linejoin:round;}
	.st12{fill:#F9A76D;stroke:#231F20;stroke-width:3;stroke-linecap:round;stroke-linejoin:round;}
	.st13{fill:#B05826;stroke:#231F20;stroke-width:3;stroke-linecap:round;stroke-linejoin:round;}
	.st14{fill:#63C5B5;stroke:#231F20;stroke-width:3;stroke-linecap:round;stroke-linejoin:round;}
	.st15{fill:#067D69;stroke:#231F20;stroke-width:3;stroke-linecap:round;stroke-linejoin:round;}
	.st16{fill:#0EAE92;stroke:#231F20;stroke-width:3;stroke-linecap:round;stroke-linejoin:round;}
</style><title>  INN-Lab-Hero</title><defs><rect x="1" y="1" width="1920" height="700"/></defs><clipPath><use xlink:href="#SVGID_1_"/></clipPath><g class="st0"><path class="st1" d="M1000 210h405c15 0 27 12 27 27v0c0 15-12 27-27 27H1000c-15 0-27-12-27-27v0C973 222 985 210 1000 210z"/><path class="st1" d="M965 319h348c15 0 27 12 27 27v0c0 15-12 27-27 27H965c-15 0-27-12-27-27v0C938 331 950 319 965 319z"/><path class="st1" d="M1007 373h258c15 0 27 12 27 27v0c0 15-12 27-27 27h-257c-15 0-27-12-27-27v0C980 386 992 373 1007 373z"/><path class="st1" d="M913 265H1469c15 0 27 12 27 27v0c0 15-12 27-27 27H913c-15 0-27-12-27-27v0C886 277 898 265 913 265z"/><rect x="1" y="1" class="st2" width="1920" height="700"/><rect x="1535" y="195" class="st3" width="55" height="53"/><line class="st4" x1="938" y1="184" x2="1056" y2="25"/><line class="st4" x1="947" y1="214" x2="1066" y2="55"/><line class="st4" x1="964" y1="246" x2="1083" y2="87"/><rect x="469" y="573" class="st5" width="350" height="38"/><polygon class="st6" points="1282 -46 820 572 469 573 931 -46 "/><polygon class="st7" points="1311 -46 820 611 820 572 1282 -46 "/><rect x="199" y="502" class="st8" width="68" height="68"/><polygon class="st9" points="612 -49 199 502 267 502 679 -49 "/><polygon class="st10" points="730 -49 267 570 267 502 679 -49 "/><rect x="148" y="415" class="st11" width="148" height="68"/><polygon class="st12" points="643 -49 296 415 148 415 495 -49 "/><polygon class="st13" points="694 -49 296 482 296 415 643 -49 "/><polyline class="st14" points="58 306 324 -49 500 -50 234 306 "/><polyline class="st15" points="234 398 568 -49 500 -50 234 306 234 398 "/><rect x="59" y="306" class="st16" width="175" height="92"/><rect x="319" y="443" class="st16" width="140" height="105"/><polygon class="st14" points="688 -49 319 443 459 443 828 -49 "/><polygon class="st15" points="906 -49 459 548 459 443 828 -49 "/><rect x="261" y="318" class="st8" width="70" height="63"/><polygon class="st9" points="605 -49 331 318 261 318 536 -49 "/><polygon class="st10" points="331 381 652 -49 605 -49 331 318 "/><rect x="200" y="159" class="st5" width="134" height="126"/><polygon class="st7" points="334 285 584 -49 490 -49 334 159 "/><polygon class="st6" points="356 -49 200 159 334 159 490 -49 "/><rect x="354" y="197" class="st5" width="79" height="218"/><polygon class="st6" points="354 197 538 -49 616 -49 433 197 "/><polygon class="st7" points="780 -49 433 415 433 197 616 -49 "/><rect x="483" y="364" class="st11" width="53" height="129"/><polygon class="st12" points="848 -52 537 364 483 364 794 -52 "/><polygon class="st13" points="848 -52 537 364 537 493 944 -52 "/><rect x="473" y="217" class="st8" width="114" height="114"/><polygon class="st9" points="682 -62 473 217 587 217 796 -62 "/><polygon class="st10" points="882 -63 587 332 587 217 796 -62 "/><rect x="384" y="64" class="st16" width="168" height="108"/><polygon class="st14" points="671 -95 553 64 384 64 503 -95 "/><polygon class="st15" points="752 -95 553 172 553 64 671 -95 "/><rect x="566" y="424" class="st11" width="80" height="130"/><polygon class="st12" points="1000 -49 646 424 566 424 920 -49 "/><polygon class="st13" points="1097 -49 646 554 646 424 1000 -49 "/><rect x="670" y="456" class="st16" width="68" height="65"/><polygon class="st14" points="1116 -49 738 456 670 456 1048 -49 "/><polygon class="st15" points="1165 -49 738 522 738 456 1116 -49 "/><rect x="576" y="348" class="st16" width="151" height="57"/><polygon class="st14" points="1025 -49 728 348 576 348 873 -49 "/><polygon class="st15" points="1067 -49 728 404 728 348 1025 -49 "/><rect x="618" y="276" class="st11" width="150" height="57"/><polygon class="st12" points="1011 -49 768 276 618 276 861 -49 "/><polygon class="st13" points="1053 -49 768 332 768 276 1011 -49 "/><rect x="614" y="66" class="st5" width="35" height="183"/><polygon class="st6" points="767 -93 649 66 614 66 733 -93 "/><polygon class="st7" points="904 -92 649 249 649 66 767 -93 "/><rect x="676" y="107" class="st16" width="91" height="111"/><polygon class="st14" points="885 -49 768 107 676 107 793 -49 "/><polygon class="st15" points="968 -49 768 217 768 107 885 -49 "/><rect x="762" y="404" class="st5" width="115" height="138"/><polygon class="st6" points="1217 -51 876 404 762 404 1102 -52 "/><polygon class="st7" points="1318 -49 876 542 876 404 1217 -51 "/><rect x="897" y="436" class="st8" width="40" height="181"/><polygon class="st9" points="1260 -49 897 436 936 436 1299 -49 "/><polygon class="st10" points="1435 -49 936 617 936 436 1299 -49 "/><rect x="968" y="511" class="st16" width="121" height="74"/><polygon class="st14" points="1387 -49 968 511 1088 511 1508 -49 "/><polygon class="st15" points="1563 -49 1088 585 1088 511 1508 -49 "/><rect x="1124" y="489" class="st11" width="131" height="154"/><polygon class="st12" points="1658 -49 1255 489 1124 489 1527 -49 "/><polygon class="st13" points="1773 -50 1255 643 1255 489 1658 -49 "/><rect x="1282" y="518" class="st16" width="106" height="96"/><polygon class="st14" points="1813 -49 1388 519 1282 519 1707 -49 "/><polygon class="st15" points="1885 -51 1388 614 1388 519 1813 -49 "/><rect x="1430" y="493" class="st8" width="67" height="148"/><polygon class="st9" points="1902 -49 1497 493 1430 493 1836 -49 "/><polygon class="st10" points="2012 -49 1497 640 1497 493 1902 -49 "/><rect x="1526" y="406" class="st5" width="275" height="165"/><polygon class="st6" points="2141 -49 1801 406 1526 406 1866 -49 "/><polygon class="st7" points="2265 -49 1801 572 1801 406 2141 -49 "/><rect x="802" y="305" class="st16" width="128" height="76"/><polygon class="st14" points="1195 -49 930 305 802 305 1068 -50 "/><polygon class="st15" points="1252 -49 930 381 930 305 1195 -49 "/><rect x="954" y="308" class="st5" width="77" height="179"/><polygon class="st6" points="1223 -49 954 308 1030 308 1300 -49 "/><polygon class="st7" points="1434 -52 1031 487 1030 308 1300 -52 "/><rect x="1080" y="384" class="st8" width="278" height="81"/><polygon class="st9" points="1404 -49 1080 384 1358 384 1682 -49 "/><polygon class="st10" points="1742 -49 1358 464 1358 384 1682 -49 "/><rect x="1397" y="399" class="st5" width="78" height="58"/><polygon class="st6" points="1810 -50 1475 399 1397 399 1732 -49 "/><polygon class="st7" points="1854 -49 1475 457 1475 399 1810 -50 "/><rect x="1053" y="269" class="st16" width="154" height="91"/><polygon class="st14" points="1447 -51 1207 269 1053 269 1293 -51 "/><polygon class="st15" points="1513 -49 1207 360 1207 269 1447 -51 "/><rect x="1238" y="284" class="st5" width="101" height="53"/><polygon class="st6" points="1589 -49 1339 284 1238 284 1488 -49 "/><polygon class="st7" points="1629 -49 1339 337 1339 284 1589 -49 "/><rect x="1367" y="269" class="st11" width="152" height="115"/><polygon class="st12" points="1738 -22 1520 271 1367 269 1587 -24 "/><polygon class="st13" points="1824 -24 1520 384 1520 271 1738 -22 "/><rect x="1576" y="311" class="st16" width="71" height="57"/><polygon class="st14" points="1847 -52 1576 311 1647 311 1918 -52 "/><polygon class="st15" points="1959 -49 1647 368 1647 311 1918 -52 "/><rect x="1669" y="311" class="st16" width="71" height="57"/><polygon class="st14" points="2009 -49 1740 311 1669 311 1939 -49 "/><polygon class="st15" points="2052 -49 1740 368 1740 311 2009 -49 "/><rect x="1766" y="314" class="st16" width="71" height="57"/><polygon class="st14" points="2105 -46 1836 314 1766 314 2035 -46 "/><polygon class="st15" points="2148 -46 1836 371 1836 314 2105 -46 "/><rect x="789" y="175" class="st8" width="190" height="89"/><polygon class="st9" points="1147 -49 979 175 789 175 957 -49 "/><polygon class="st10" points="1213 -49 979 263 979 175 1147 -49 "/><rect x="868" y="88" class="st5" width="124" height="59"/><polygon class="st6" points="1094 -49 992 88 868 88 971 -49 "/><polygon class="st7" points="1138 -49 992 146 992 88 1094 -49 "/><rect x="1016" y="107" class="st16" width="46" height="140"/><polygon class="st15" points="1284 -50 1061 247 1061 107 1178 -49 "/><polygon class="st14" points="1178 -49 1061 107 1016 107 1133 -49 "/><rect x="1074" y="107" class="st11" width="46" height="140"/><polygon class="st13" points="1342 -50 1120 247 1120 107 1237 -49 "/><polygon class="st12" points="1237 -49 1120 107 1074 107 1191 -49 "/><rect x="1557" y="237" class="st5" width="184" height="52"/><polygon class="st6" points="1954 -48 1741 237 1557 237 1770 -48 "/><polygon class="st7" points="1993 -48 1741 289 1741 237 1954 -48 "/><rect x="1146" y="141" class="st5" width="349" height="103"/><polygon class="st6" points="1639 -53 1495 141 1146 141 1289 -50 "/><polygon class="st7" points="1714 -49 1495 244 1495 141 1639 -53 "/><rect x="1600" y="75" class="st8" width="78" height="143"/><polygon class="st9" points="1771 -49 1678 75 1600 75 1693 -49 "/><polygon class="st10" points="1878 -49 1678 218 1678 75 1771 -49 "/></g></svg>