<?xml version="1.0" encoding="utf-8"?><svg version="1.1" id="Layer_1" xmlns="http://www.w3.org/2000/svg" xmlns:xlink="http://www.w3.org/1999/xlink" x="0px" y="0px"
	 viewBox="0 0 1920 700" style="enable-background:new 0 0 1920 700;" xml:space="preserve"><style>.a{stop-color:#000;stop-opacity:0.4;}.b{stop-color:#FFF;stop-opacity:0;}.c{stop-color:#000;}</style><style type="text/css">  
	.st0{clip-path:url(#SVGID_2_);}
	.st1{fill:#181A2D;}
	.st2{fill:#0EAE92;}
	.st3{fill:url(#SVGID_3_);}
	.st4{fill:#F47721;}
	.st5{fill:url(#SVGID_4_);}
	.st6{fill:url(#SVGID_5_);}
	.st7{fill:url(#SVGID_6_);}
	.st8{fill:url(#SVGID_7_);}
	.st9{fill:url(#SVGID_8_);}
	.st10{fill:url(#SVGID_9_);}
	.st11{fill:url(#SVGID_10_);}
	.st12{fill:#24C0F1;}
	.st13{fill:url(#SVGID_11_);}
	.st14{fill:url(#SVGID_12_);}
	.st15{fill:#D859A1;}
	.st16{fill:url(#SVGID_13_);}
	.st17{fill:url(#SVGID_14_);}
	.st18{fill:url(#SVGID_15_);}
	.st19{fill:url(#SVGID_16_);}
	.st20{fill:#4CBFAB;}
	.st21{fill:url(#SVGID_17_);}
	.st22{fill:url(#SVGID_18_);}
	.st23{fill:url(#SVGID_19_);}
	.st24{fill:url(#SVGID_20_);}
	.st25{fill:url(#SVGID_21_);}
	.st26{fill:url(#SVGID_22_);}
</style><title>  INN-Lab-Hero</title><defs><rect id="SVGID_1_" y="-1" width="1920" height="702.1"/></defs><clipPath id="SVGID_2_"><use xlink:href="#SVGID_1_"/></clipPath><g class="st0"><g id="Background"><rect y="-1" class="st1" width="1920" height="702.1"/></g><g id="Texture"><path class="st2" d="M1356.4 165.1c-295.2 0-534.6 239.4-534.6 534.6h92.5c0-244.2 197.9-442.1 442.1-442.1s442.1 197.9 442.1 442.1h92.5C1891 404.5 1651.7 165.1 1356.4 165.1z"/><radialGradient id="SVGID_3_" cx="1366.5601" cy="8.28" r="501.23" gradientTransform="matrix(1 0 0 -1 0 702)" gradientUnits="userSpaceOnUse"><stop offset="0.78" class="a"/><stop offset="1" class="b"/></radialGradient><path class="st3" d="M1356.4 165.1c-295.2 0-534.6 239.4-534.6 534.6h92.5c0-244.2 197.9-442.1 442.1-442.1s442.1 197.9 442.1 442.1h92.5C1891 404.5 1651.7 165.1 1356.4 165.1z"/><path class="st4" d="M957.1 300.4c-220.5 0-399.3 178.8-399.3 399.3h69.1c0-182.4 147.8-330.2 330.2-330.2s330.2 147.8 330.2 330.2h69.1C1356.4 479.2 1177.7 300.4 957.1 300.4z"/><radialGradient id="SVGID_4_" cx="964.71" cy="6.77" r="374.35" gradientTransform="matrix(1 0 0 -1 0 702)" gradientUnits="userSpaceOnUse"><stop offset="0.78" class="a"/><stop offset="1" class="b"/></radialGradient><path class="st5" d="M957.1 300.4c-220.5 0-399.3 178.8-399.3 399.3h69.1c0-182.4 147.8-330.2 330.2-330.2s330.2 147.8 330.2 330.2h69.1C1356.4 479.2 1177.7 300.4 957.1 300.4z"/><path class="st2" d="M1356.4 342.5c197.3 0 357.2 159.9 357.2 357.2h84.9c0-244.2-197.9-442.1-442.1-442.1S914.3 455.5 914.3 699.7h84.9C999.2 502.4 1159.1 342.5 1356.4 342.5z"/><radialGradient id="SVGID_5_" cx="1354.6" cy="6.78" r="438.22" gradientTransform="matrix(1 0 0 -1 0 702)" gradientUnits="userSpaceOnUse"><stop offset="0.64" class="c"/><stop offset="1" class="b"/></radialGradient><path class="st6" d="M1356.4 342.5c197.3 0 357.2 159.9 357.2 357.2h84.9c0-244.2-197.9-442.1-442.1-442.1S914.3 455.5 914.3 699.7h84.9C999.2 502.4 1159.1 342.5 1356.4 342.5z"/><path class="st4" d="M957.1 432.9c147.3 0 266.8 119.4 266.8 266.8h63.4c0-182.4-147.8-330.2-330.2-330.2S626.9 517.3 626.9 699.7h63.4C690.3 552.4 809.8 432.9 957.1 432.9z"/><radialGradient id="SVGID_6_" cx="955.78" cy="5.65" r="327.29" gradientTransform="matrix(1 0 0 -1 0 702)" gradientUnits="userSpaceOnUse"><stop offset="0.64" class="c"/><stop offset="1" class="b"/></radialGradient><path class="st7" d="M957.1 432.9c147.3 0 266.8 119.4 266.8 266.8h63.4c0-182.4-147.8-330.2-330.2-330.2S626.9 517.3 626.9 699.7h63.4C690.3 552.4 809.8 432.9 957.1 432.9z"/><path class="st4" d="M1755.7 432.9c147.3 0 266.8 119.4 266.8 266.8h63.4c0-182.4-147.8-330.2-330.2-330.2s-330.2 147.8-330.2 330.2h63.4C1488.9 552.4 1608.3 432.9 1755.7 432.9z"/><radialGradient id="SVGID_7_" cx="1754.34" cy="5.65" r="327.29" gradientTransform="matrix(1 0 0 -1 0 702)" gradientUnits="userSpaceOnUse"><stop offset="0.64" class="c"/><stop offset="1" class="b"/></radialGradient><path class="st8" d="M1755.7 432.9c147.3 0 266.8 119.4 266.8 266.8h63.4c0-182.4-147.8-330.2-330.2-330.2s-330.2 147.8-330.2 330.2h63.4C1488.9 552.4 1608.3 432.9 1755.7 432.9z"/><path class="st4" d="M1755.7 300.4c-220.5 0-399.3 178.8-399.3 399.3h69.1c0-182.4 147.8-330.2 330.2-330.2s330.2 147.8 330.2 330.2h69.1C2155 479.2 1976.2 300.4 1755.7 300.4z"/><radialGradient id="SVGID_8_" cx="1763.27" cy="6.77" r="374.35" gradientTransform="matrix(1 0 0 -1 0 702)" gradientUnits="userSpaceOnUse"><stop offset="0.78" class="a"/><stop offset="1" class="b"/></radialGradient><path class="st9" d="M1755.7 300.4c-220.5 0-399.3 178.8-399.3 399.3h69.1c0-182.4 147.8-330.2 330.2-330.2s330.2 147.8 330.2 330.2h69.1C2155 479.2 1976.2 300.4 1755.7 300.4z"/><path class="st4" d="M957.1 432.9c-147.3 0-266.8 119.4-266.8 266.8h62.3c0-113 91.6-204.5 204.5-204.5s204.5 91.6 204.5 204.5h62.3C1223.9 552.4 1104.5 432.9 957.1 432.9z"/><radialGradient id="SVGID_9_" cx="955.71" cy="3.59" r="264.91" gradientTransform="matrix(1 0 0 -1 0 702)" gradientUnits="userSpaceOnUse"><stop offset="0.6" class="c"/><stop offset="1" class="b"/></radialGradient><path class="st10" d="M957.1 432.9c-147.3 0-266.8 119.4-266.8 266.8h62.3c0-113 91.6-204.5 204.5-204.5s204.5 91.6 204.5 204.5h62.3C1223.9 552.4 1104.5 432.9 957.1 432.9z"/><path class="st4" d="M1755.7 432.9c-147.3 0-266.8 119.4-266.8 266.8h62.3c0-113 91.6-204.5 204.5-204.5s204.5 91.6 204.5 204.5h62.3C2022.5 552.4 1903 432.9 1755.7 432.9z"/><radialGradient id="SVGID_10_" cx="1754.26" cy="3.59" r="264.91" gradientTransform="matrix(1 0 0 -1 0 702)" gradientUnits="userSpaceOnUse"><stop offset="0.6" class="c"/><stop offset="1" class="b"/></radialGradient><path class="st11" d="M1755.7 432.9c-147.3 0-266.8 119.4-266.8 266.8h62.3c0-113 91.6-204.5 204.5-204.5s204.5 91.6 204.5 204.5h62.3C2022.5 552.4 1903 432.9 1755.7 432.9z"/><path class="st12" d="M1356.4 342.5c-197.3 0-357.2 159.9-357.2 357.2h83.4c0-151.2 122.6-273.8 273.8-273.8s273.8 122.6 273.8 273.8h83.4C1713.6 502.4 1553.7 342.5 1356.4 342.5z"/><radialGradient id="SVGID_11_" cx="1354.5" cy="4.03" r="354.7" gradientTransform="matrix(1 0 0 -1 0 702)" gradientUnits="userSpaceOnUse"><stop offset="0.6" class="c"/><stop offset="1" class="b"/></radialGradient><path class="st13" d="M1356.4 342.5c-197.3 0-357.2 159.9-357.2 357.2h83.4c0-151.2 122.6-273.8 273.8-273.8s273.8 122.6 273.8 273.8h83.4C1713.6 502.4 1553.7 342.5 1356.4 342.5z"/><path class="st12" d="M1356.4 516.5c-101.2 0-183.2 82-183.2 183.2v0h366.4C1539.6 598.5 1457.6 516.5 1356.4 516.5z"/><path class="st12" d="M1356.4 516.5c101.2 0 183.2 82 183.2 183.2h90.7c0-151.2-122.6-273.8-273.8-273.8s-273.8 122.6-273.8 273.8h90.7C1173.2 598.5 1255.2 516.5 1356.4 516.5z"/><radialGradient id="SVGID_12_" cx="1355.83" cy="3.37" r="270.76" gradientTransform="matrix(1 0 0 -1 0 702)" gradientUnits="userSpaceOnUse"><stop offset="0.43" class="c"/><stop offset="1" class="b"/></radialGradient><path class="st14" d="M1356.4 516.5c101.2 0 183.2 82 183.2 183.2h90.7c0-151.2-122.6-273.8-273.8-273.8s-273.8 122.6-273.8 273.8h90.7C1173.2 598.5 1255.2 516.5 1356.4 516.5z"/><path class="st15" d="M957.1 562.9c-75.6 0-136.8 61.3-136.8 136.8H1094C1094 624.1 1032.7 562.9 957.1 562.9 957.2 562.9 957.2 562.9 957.1 562.9z"/><path class="st15" d="M957.1 562.9c75.6 0 136.8 61.2 136.9 136.8 0 0 0 0 0 0h67.7c0-113-91.6-204.5-204.5-204.5s-204.6 91.6-204.6 204.5h67.7C820.3 624.1 881.6 562.9 957.1 562.9z"/><radialGradient id="SVGID_13_" cx="956.7" cy="3.1" r="202.22" gradientTransform="matrix(1 0 0 -1 0 702)" gradientUnits="userSpaceOnUse"><stop offset="0.43" class="c"/><stop offset="1" class="b"/></radialGradient><path class="st16" d="M957.1 562.9c75.6 0 136.8 61.2 136.9 136.8 0 0 0 0 0 0h67.7c0-113-91.6-204.5-204.5-204.5s-204.6 91.6-204.6 204.5h67.7C820.3 624.1 881.6 562.9 957.1 562.9z"/><path class="st15" d="M1755.7 562.9c-75.6 0-136.8 61.3-136.8 136.8h273.6C1892.5 624.1 1831.2 562.9 1755.7 562.9z"/><path class="st15" d="M1755.7 562.9c75.6 0 136.8 61.3 136.8 136.8v0h67.7c0-113-91.6-204.5-204.5-204.5s-204.5 91.6-204.5 204.5h67.7C1618.9 624.1 1680.1 562.9 1755.7 562.9L1755.7 562.9z"/><radialGradient id="SVGID_14_" cx="1755.25" cy="3.1" r="202.22" gradientTransform="matrix(1 0 0 -1 0 702)" gradientUnits="userSpaceOnUse"><stop offset="0.43" class="c"/><stop offset="1" class="b"/></radialGradient><path class="st17" d="M1755.7 562.9c75.6 0 136.8 61.3 136.8 136.8v0h67.7c0-113-91.6-204.5-204.5-204.5s-204.5 91.6-204.5 204.5h67.7C1618.9 624.1 1680.1 562.9 1755.7 562.9L1755.7 562.9z"/><path class="st2" d="M420.9 318.7c176 0 318.7-142.7 318.7-318.7h-55.1c0 145.6-118 263.6-263.6 263.6S157.3 145.6 157.3 0h-55.1C102.2 176 244.9 318.7 420.9 318.7z"/><radialGradient id="SVGID_15_" cx="903.16" cy="2860.98" r="298.82" gradientTransform="matrix(-1 0 0 1 1318.01 -2857.4099)" gradientUnits="userSpaceOnUse"><stop offset="0.78" class="a"/><stop offset="1" class="b"/></radialGradient><path class="st18" d="M420.9 318.7c176 0 318.7-142.7 318.7-318.7h-55.1c0 145.6-118 263.6-263.6 263.6S157.3 145.6 157.3 0h-55.1C102.2 176 244.9 318.7 420.9 318.7z"/><path class="st4" d="M703.4 295.8c163.4 0 295.8-132.4 295.8-295.8H948c0 135.1-109.5 244.6-244.7 244.6S458.7 135.1 458.7 0h-51.2C407.5 163.4 540 295.8 703.4 295.8z"/><radialGradient id="SVGID_16_" cx="620.25" cy="2860.72" r="277.36" gradientTransform="matrix(-1 0 0 1 1318.01 -2857.4099)" gradientUnits="userSpaceOnUse"><stop offset="0.78" class="a"/><stop offset="1" class="b"/></radialGradient><path class="st19" d="M703.4 295.8c163.4 0 295.8-132.4 295.8-295.8H948c0 135.1-109.5 244.6-244.7 244.6S458.7 135.1 458.7 0h-51.2C407.5 163.4 540 295.8 703.4 295.8z"/><path class="st20" d="M420.9 213c-117.6 0-213-95.3-213-213h-50.6c0 145.6 118 263.6 263.6 263.6S684.5 145.6 684.5 0h-50.6C633.8 117.6 538.5 213 420.9 213z"/><radialGradient id="SVGID_17_" cx="896.03" cy="2860.0801" r="261.25" gradientTransform="matrix(-1 0 0 1 1318.01 -2857.4099)" gradientUnits="userSpaceOnUse"><stop offset="0.64" class="c"/><stop offset="1" class="b"/></radialGradient><path class="st21" d="M420.9 213c-117.6 0-213-95.3-213-213h-50.6c0 145.6 118 263.6 263.6 263.6S684.5 145.6 684.5 0h-50.6C633.8 117.6 538.5 213 420.9 213z"/><path class="st4" d="M703.4 197.7c-109.2 0-197.7-88.5-197.7-197.7h-47c0 135.1 109.5 244.6 244.6 244.6S948 135.1 948 0h-47C901 109.2 812.5 197.7 703.4 197.7z"/><radialGradient id="SVGID_18_" cx="613.63" cy="2859.8901" r="242.49" gradientTransform="matrix(-1 0 0 1 1318.01 -2857.4099)" gradientUnits="userSpaceOnUse"><stop offset="0.64" class="c"/><stop offset="1" class="b"/></radialGradient><path class="st22" d="M703.4 197.7c-109.2 0-197.7-88.5-197.7-197.7h-47c0 135.1 109.5 244.6 244.6 244.6S948 135.1 948 0h-47C901 109.2 812.5 197.7 703.4 197.7z"/><path class="st12" d="M703.4 197.7C812.5 197.7 901 109.2 901 0h-46.1c0 83.7-67.8 151.5-151.5 151.5S551.8 83.7 551.8 0c0 0 0 0 0 0h-46.1C505.7 109.2 594.2 197.7 703.4 197.7z"/><radialGradient id="SVGID_19_" cx="613.57" cy="2858.3701" r="196.28" gradientTransform="matrix(-1 0 0 1 1318.01 -2857.4099)" gradientUnits="userSpaceOnUse"><stop offset="0.6" class="c"/><stop offset="1" class="b"/></radialGradient><path class="st23" d="M703.4 197.7C812.5 197.7 901 109.2 901 0h-46.1c0 83.7-67.8 151.5-151.5 151.5S551.8 83.7 551.8 0c0 0 0 0 0 0h-46.1C505.7 109.2 594.2 197.7 703.4 197.7z"/><path class="st15" d="M420.9 213c117.6 0 213-95.3 213-213h-49.7c0 90.2-73.1 163.2-163.2 163.3 0 0 0 0-0.1 0 -90.2 0-163.2-73.1-163.2-163.2h-49.7C207.9 117.6 303.3 213 420.9 213z"/><radialGradient id="SVGID_20_" cx="895.97" cy="2858.4399" r="211.46" gradientTransform="matrix(-1 0 0 1 1318.01 -2857.4099)" gradientUnits="userSpaceOnUse"><stop offset="0.6" class="c"/><stop offset="1" class="b"/></radialGradient><path class="st24" d="M420.9 213c117.6 0 213-95.3 213-213h-49.7c0 90.2-73.1 163.2-163.2 163.3 0 0 0 0-0.1 0 -90.2 0-163.2-73.1-163.2-163.2h-49.7C207.9 117.6 303.3 213 420.9 213z"/><path class="st12" d="M703.4 101.4c56 0 101.4-45.4 101.4-101.4H602C602 56 647.4 101.4 703.4 101.4 703.4 101.4 703.4 101.4 703.4 101.4z"/><path class="st12" d="M703.4 101.4C647.4 101.4 602 56 602 0c0 0 0 0 0 0h-50.2c0 83.7 67.8 151.5 151.5 151.5 0 0 0 0 0 0 83.7 0 151.5-67.8 151.5-151.5h-50.2C804.8 56 759.4 101.4 703.4 101.4z"/><radialGradient id="SVGID_21_" cx="614.31" cy="2858" r="149.83" gradientTransform="matrix(-1 0 0 1 1318.01 -2857.4099)" gradientUnits="userSpaceOnUse"><stop offset="0.43" class="c"/><stop offset="1" class="b"/></radialGradient><path class="st25" d="M703.4 101.4C647.4 101.4 602 56 602 0c0 0 0 0 0 0h-50.2c0 83.7 67.8 151.5 151.5 151.5 0 0 0 0 0 0 83.7 0 151.5-67.8 151.5-151.5h-50.2C804.8 56 759.4 101.4 703.4 101.4z"/><path class="st15" d="M420.9 109.2c60.3 0 109.2-48.9 109.2-109.2H311.7C311.7 60.3 360.6 109.2 420.9 109.2z"/><path class="st15" d="M420.9 109.2c-60.3 0-109.2-48.9-109.2-109.2h-54c0 90.1 73.1 163.2 163.2 163.2 90.2 0 163.3-73.1 163.3-163.2 0 0 0 0 0 0h-54C530.2 60.3 481.3 109.2 420.9 109.2 420.9 109.2 420.9 109.2 420.9 109.2z"/><radialGradient id="SVGID_22_" cx="896.76" cy="2858.05" r="161.42" gradientTransform="matrix(-1 0 0 1 1318.01 -2857.4099)" gradientUnits="userSpaceOnUse"><stop offset="0.43" class="c"/><stop offset="1" class="b"/></radialGradient><path class="st26" d="M420.9 109.2c-60.3 0-109.2-48.9-109.2-109.2h-54c0 90.1 73.1 163.2 163.2 163.2 90.2 0 163.3-73.1 163.3-163.2 0 0 0 0 0 0h-54C530.2 60.3 481.3 109.2 420.9 109.2 420.9 109.2 420.9 109.2 420.9 109.2z"/></g></g></svg>