<svg id="Layer_1" data-name="Layer 1" xmlns="http://www.w3.org/2000/svg" viewBox="0 0 600 600"><defs><style>.cls-1{fill:#f77710;}.cls-2{fill:#fff;}</style></defs><title>Lab-Plugin-ClientHosting100</title><rect class="cls-1" width="600" height="600"/><polygon points="421.59 516.89 478.53 429.32 436.81 446.4 436.81 349.78 421.59 349.78 406.36 349.78 406.36 446.4 364.64 429.32 421.59 516.89"/><path d="M421.59,521.06a4.15,4.15,0,0,1-3.49-1.9l-56.95-87.57a4.17,4.17,0,0,1,5.07-6.13l36,14.73V349.78a4.16,4.16,0,0,1,4.17-4.17h30.46a4.16,4.16,0,0,1,4.17,4.17v90.41l36-14.73a4.17,4.17,0,0,1,5.07,6.13l-56.95,87.57A4.15,4.15,0,0,1,421.59,521.06ZM375.4,438.23l46.18,71,46.18-71-29.37,12a4.17,4.17,0,0,1-5.75-3.86V353.95H410.52V446.4a4.17,4.17,0,0,1-1.84,3.46,4.21,4.21,0,0,1-3.9.4Z"/><path class="cls-2" d="M110.15,245.77v97.52h0c0,24.13,88.21,43.7,197,43.7s197-19.56,197-43.7V245.77Z"/><path d="M307.18,391.15c-97.53,0-201.2-16.78-201.2-47.86V241.6H508.38V343.29C508.38,374.37,404.72,391.15,307.18,391.15ZM114.32,249.93v93.35c0,18.7,79.21,39.53,192.86,39.53S500,362,500,343.29V249.93Z"/><ellipse cx="307.18" cy="242.54" rx="197.03" ry="43.7"/><path d="M307.18,290.41c-97.53,0-201.2-16.78-201.2-47.86s103.66-47.86,201.2-47.86,201.2,16.78,201.2,47.86S404.72,290.41,307.18,290.41Zm0-87.39c-113.66,0-192.86,20.83-192.86,39.53s79.21,39.53,192.86,39.53S500,261.24,500,242.54,420.84,203,307.18,203Z"/><path class="cls-2" d="M504.21,292.91c0,24.13-88.21,43.7-197,43.7s-197-19.56-197-43.7"/><path d="M307.18,340.78C209.65,340.78,106,324,106,292.91a4.17,4.17,0,0,1,8.33,0c0,18.7,79.21,39.53,192.86,39.53S500,311.61,500,292.91a4.17,4.17,0,1,1,8.33,0C508.38,324,404.72,340.78,307.18,340.78Z"/><path d="M184.69,69.77l-56.95,87.57,41.72-17.08V268c9.39,2,19.61,3.65,30.46,4.92V140.27l41.72,17.08Z"/><path d="M199.92,277.07a3.82,3.82,0,0,1-.48,0c-11.05-1.3-21.43-3-30.84-5a4.16,4.16,0,0,1-3.3-4.07V146.48l-36,14.73a4.17,4.17,0,0,1-5.07-6.13L181.2,67.5a4.32,4.32,0,0,1,7,0l56.95,87.57a4.17,4.17,0,0,1-5.07,6.13l-36-14.73V272.9a4.16,4.16,0,0,1-4.17,4.17Zm-26.29-12.48c6.91,1.38,14.32,2.59,22.12,3.6V140.27a4.17,4.17,0,0,1,5.75-3.86l29.37,12-46.18-71-46.18,71,29.38-12a4.17,4.17,0,0,1,5.75,3.86Z"/></svg>