<svg id="Layer_1" data-name="Layer 1" xmlns="http://www.w3.org/2000/svg" viewBox="0 0 600 600"><defs><style>.cls-1{fill:#f77710;}.cls-2{fill:#fff;}</style></defs><title>Lab-Plugin-DoubleClick100</title><rect class="cls-1" width="600" height="600"/><path d="M499.13,182.32a54.48,54.48,0,0,0-29.19-29.19A53.86,53.86,0,0,0,449.13,149H168.45a53.86,53.86,0,0,0-20.81,4.16,54.48,54.48,0,0,0-29.19,29.18,53.86,53.86,0,0,0-4.17,20.83V416.32a53.86,53.86,0,0,0,4.17,20.83,54.48,54.48,0,0,0,29.18,29.17,53.86,53.86,0,0,0,20.82,4.17H449.13A53.86,53.86,0,0,0,470,466.32a54.48,54.48,0,0,0,29.18-29.19,53.86,53.86,0,0,0,4.16-20.81V203.13A53.86,53.86,0,0,0,499.13,182.32Z"/><rect class="cls-2" x="110.37" y="147.57" width="372.35" height="304.87" rx="45.83" ry="45.83"/><path d="M486.89,172.58a54.48,54.48,0,0,0-29.18-29.18,53.86,53.86,0,0,0-20.82-4.17H156.2a53.86,53.86,0,0,0-20.82,4.17,54.48,54.48,0,0,0-29.17,29.17A53.86,53.86,0,0,0,102,193.4V406.6a53.86,53.86,0,0,0,4.17,20.82,54.48,54.48,0,0,0,29.17,29.17,53.86,53.86,0,0,0,20.83,4.17H436.89a53.86,53.86,0,0,0,20.83-4.17,54.48,54.48,0,0,0,29.17-29.18,53.86,53.86,0,0,0,4.17-20.82V193.4A53.86,53.86,0,0,0,486.89,172.58Zm-4.17,234a45.89,45.89,0,0,1-45.83,45.83H156.2a45.89,45.89,0,0,1-45.83-45.83V226H482.72Zm0-188.9H110.37V193.4a45.89,45.89,0,0,1,45.83-45.83H436.89a45.89,45.89,0,0,1,45.83,45.83Z"/><path d="M446.93,195l-12.68-12.68L446.55,170a4.17,4.17,0,0,0-5.89-5.89l-12.31,12.31L416,164.14a4.17,4.17,0,0,0-5.89,5.89l12.31,12.3L409.78,195a4.17,4.17,0,1,0,5.89,5.89l12.68-12.68L441,200.9a4.17,4.17,0,0,0,5.89-5.89Z"/></svg>