<svg id="Layer_1" data-name="Layer 1" xmlns="http://www.w3.org/2000/svg" viewBox="0 0 600 600"><defs><style>.cls-1{fill:#ec50b7;}.cls-2{fill:#fff;}</style></defs><title>Lab-Plugin-Link-Roundups100</title><rect class="cls-1" width="600" height="600"/><path d="M304.07,213.86H139.17a50.14,50.14,0,0,0-50,50v47.91a50.14,50.14,0,0,0,50,50H304.07a50.14,50.14,0,0,0,50-50V263.86A50.14,50.14,0,0,0,304.07,213.86Zm-14.39,34.37a25.07,25.07,0,0,1,25,25V302.4a25.07,25.07,0,0,1-25,25H153.55a25.07,25.07,0,0,1-25-25V273.23a25.07,25.07,0,0,1,25-25Z"/><path d="M304.07,365.93H139.17A54.23,54.23,0,0,1,85,311.77V263.86a54.23,54.23,0,0,1,54.17-54.16h164.9a54.23,54.23,0,0,1,54.17,54.16v47.91A54.23,54.23,0,0,1,304.07,365.93ZM139.17,218a45.89,45.89,0,0,0-45.83,45.83v47.91a45.89,45.89,0,0,0,45.83,45.83h164.9a45.89,45.89,0,0,0,45.83-45.83V263.86A45.89,45.89,0,0,0,304.07,218ZM289.69,331.56H153.55a29.2,29.2,0,0,1-29.16-29.17V273.23a29.2,29.2,0,0,1,29.16-29.17H289.69a29.2,29.2,0,0,1,29.17,29.17V302.4A29.2,29.2,0,0,1,289.69,331.56ZM153.55,252.4a20.85,20.85,0,0,0-20.83,20.83V302.4a20.85,20.85,0,0,0,20.83,20.83H289.69a20.86,20.86,0,0,0,20.83-20.83V273.23a20.86,20.86,0,0,0-20.83-20.83Z"/><path class="cls-2" d="M293.66,203.45H128.75a50.14,50.14,0,0,0-50,50v47.91a50.14,50.14,0,0,0,50,50H293.66a50.14,50.14,0,0,0,50-50V253.44A50.14,50.14,0,0,0,293.66,203.45Zm-14.39,34.37a25.07,25.07,0,0,1,25,25V292a25.07,25.07,0,0,1-25,25H143.14a25.07,25.07,0,0,1-25-25V262.82a25.07,25.07,0,0,1,25-25Z"/><path d="M293.65,355.52H128.75a54.23,54.23,0,0,1-54.17-54.16V253.44a54.23,54.23,0,0,1,54.17-54.16h164.9a54.23,54.23,0,0,1,54.17,54.16v47.91A54.23,54.23,0,0,1,293.65,355.52Zm-164.9-147.9a45.89,45.89,0,0,0-45.83,45.83v47.91a45.89,45.89,0,0,0,45.83,45.83h164.9a45.89,45.89,0,0,0,45.83-45.83V253.44a45.89,45.89,0,0,0-45.83-45.83ZM279.27,321.15H143.13A29.2,29.2,0,0,1,114,292V262.82a29.2,29.2,0,0,1,29.16-29.17H279.27a29.2,29.2,0,0,1,29.17,29.17V292A29.2,29.2,0,0,1,279.27,321.15ZM143.13,242a20.85,20.85,0,0,0-20.83,20.83V292a20.85,20.85,0,0,0,20.83,20.83H279.27A20.86,20.86,0,0,0,300.11,292V262.82A20.86,20.86,0,0,0,279.27,242Z"/><path d="M240.33,352.91a50.16,50.16,0,0,0,49.86,46.36H455.1a50.14,50.14,0,0,0,50-50V301.36a50.14,50.14,0,0,0-50-50H290.2a50.14,50.14,0,0,0-50,50V317m39.38,0v-6.25a25.07,25.07,0,0,1,25-25H440.72a25.07,25.07,0,0,1,25,25V339.9a25.07,25.07,0,0,1-25,25H304.58a25.07,25.07,0,0,1-22.18-13.51"/><path d="M455.1,403.43H290.2a54.37,54.37,0,0,1-54-50.22l8.32-.6A46,46,0,0,0,290.2,395.1H455.1a45.89,45.89,0,0,0,45.83-45.83V301.36a45.89,45.89,0,0,0-45.83-45.83H290.2a45.89,45.89,0,0,0-45.83,45.83V317H236V301.36a54.23,54.23,0,0,1,54.17-54.16H455.1a54.23,54.23,0,0,1,54.17,54.16v47.91A54.23,54.23,0,0,1,455.1,403.43Zm-14.38-34.37H304.58a29.14,29.14,0,0,1-25.88-15.75l7.39-3.86a20.83,20.83,0,0,0,18.49,11.27H440.72a20.85,20.85,0,0,0,20.83-20.83V310.73a20.85,20.85,0,0,0-20.83-20.83H304.58a20.86,20.86,0,0,0-20.83,20.83V317h-8.33v-6.25a29.2,29.2,0,0,1,29.17-29.17H440.72a29.2,29.2,0,0,1,29.16,29.17V339.9A29.19,29.19,0,0,1,440.72,369.06Z"/><path class="cls-2" d="M250.62,355.78v3.91a50.14,50.14,0,0,0,50,50H465.52a50.14,50.14,0,0,0,50-50V311.77a50.14,50.14,0,0,0-50-50H300.61a50.14,50.14,0,0,0-50,50V317c29.16,2.34,40.44-3,40.44-3A25.1,25.1,0,0,1,315,296.15H451.14a25.07,25.07,0,0,1,25,25v29.16a25.07,25.07,0,0,1-25,25H315a25.07,25.07,0,0,1-25-25"/><path d="M465.52,413.85H300.61a54.22,54.22,0,0,1-54.16-54.16v-3.91h8.33v3.91a45.88,45.88,0,0,0,45.83,45.83H465.52a45.89,45.89,0,0,0,45.83-45.83V311.77a45.89,45.89,0,0,0-45.83-45.83H300.61a45.88,45.88,0,0,0-45.83,45.83v1.33c19.11,1.14,29.35-1.25,33-2.38A29.41,29.41,0,0,1,315,292H451.14a29.2,29.2,0,0,1,29.16,29.17v29.16a29.2,29.2,0,0,1-29.16,29.17H315a29.2,29.2,0,0,1-29.17-29.17h8.33A20.86,20.86,0,0,0,315,371.14H451.14A20.85,20.85,0,0,0,472,350.31V321.15a20.85,20.85,0,0,0-20.83-20.83H315a21,21,0,0,0-19.95,14.85l-.54,1.76-1.66.79c-.5.24-12.64,5.82-42.57,3.42l-3.83-.31v-9.05a54.22,54.22,0,0,1,54.16-54.16H465.52a54.23,54.23,0,0,1,54.17,54.16v47.91A54.23,54.23,0,0,1,465.52,413.85Z"/><rect class="cls-2" x="248.09" y="310.62" width="26.04" height="47.09" transform="translate(595.28 73.05) rotate(90)"/><rect x="244.69" y="316.63" width="17.71" height="78.81" transform="translate(609.59 102.49) rotate(90)"/></svg>