<svg id="Layer_1" data-name="Layer 1" xmlns="http://www.w3.org/2000/svg" viewBox="0 0 600 600"><defs><style>.cls-1{fill:#09c9ff;}.cls-2{fill:#fff;}</style></defs><title>Lab-Plugin-NewsQuiz100</title><rect class="cls-1" width="600" height="600"/><rect x="175.94" y="178.14" width="258.53" height="258.53"/><path d="M438.62,440.82H171.79V174H438.62Zm-258.54-8.29H430.32V182.28H180.08Z"/><rect class="cls-2" x="159.5" y="154.53" width="258.53" height="258.53"/><path d="M422.18,417.21H155.35V150.38H422.18Zm-258.54-8.29H413.88V158.67H163.64Z"/><path d="M192.29,261h53s16.32,17.21,35.67,112.21C280.92,373.26,233.75,301.71,192.29,261Z"/><path d="M280.92,377.4a4.14,4.14,0,0,1-3.46-1.86c-.47-.71-47.41-71.65-88.07-111.53a4.15,4.15,0,0,1,2.91-7.11h53a4.15,4.15,0,0,1,3,1.3c.7.74,17.35,19.17,36.72,114.24a4.15,4.15,0,0,1-2.48,4.66A4.2,4.2,0,0,1,280.92,377.4ZM202.2,265.19c26.78,28,54.83,66.36,70.25,88.37-14.08-62.4-25.89-83.31-29.28-88.37Z"/><path d="M451.72,123.54l-75.67-2.25s-77.44,21.46-95.14,252C280.92,373.26,343.41,182.62,451.72,123.54Z"/><path d="M280.92,377.4a4,4,0,0,1-.81-.08,4.14,4.14,0,0,1-3.32-4.38c17.72-230.75,94.89-254.74,98.16-255.65a4.11,4.11,0,0,1,1.23-.15l75.67,2.25a4.14,4.14,0,0,1,1.86,7.78C348.1,184.78,285.47,372.66,284.86,374.55A4.16,4.16,0,0,1,280.92,377.4Zm95.77-251.95c-3.06,1.15-20.12,8.67-38.8,38.79-17.35,28-39.27,81-49.92,177.91,21.29-53.63,72.72-164.83,149.47-214.89Z"/></svg>