<svg id="Layer_1" data-name="Layer 1" xmlns="http://www.w3.org/2000/svg" viewBox="0 0 600 600"><defs><style>.cls-1{fill:#09c9ff;}.cls-2{fill:#fff;}</style></defs><title>Lab-Plugin-Google-NoNonsense100</title><rect class="cls-1" width="600" height="600"/><path d="M302.05,114.23c-108.56,0-196.87,88.31-196.87,196.88S193.49,508,302.05,508s196.88-88.31,196.88-196.87S410.61,114.23,302.05,114.23Z"/><circle class="cls-2" cx="290.59" cy="283.33" r="192.71"/><path d="M290.59,480.21C182,480.21,93.72,391.89,93.72,283.33S182,86.46,290.59,86.46s196.88,88.31,196.88,196.88S399.16,480.21,290.59,480.21Zm0-385.42c-104,0-188.54,84.58-188.54,188.54s84.58,188.54,188.54,188.54S479.14,387.3,479.14,283.33,394.56,94.79,290.59,94.79Z"/><path d="M460.78,147.77A196.35,196.35,0,0,0,309.05,76.36a4.16,4.16,0,0,0-4.17,4.17L294.76,260.1l10.12,13.13a4.17,4.17,0,0,0,2.39,3.77,4.12,4.12,0,0,0,1.77.4,4.16,4.16,0,0,0,2.65-1L460.22,153.65a4.18,4.18,0,0,0,1.51-3.23A4.1,4.1,0,0,0,460.78,147.77Z"/><path class="cls-2" d="M447.45,137.31,298.92,260.1V67.39A192.31,192.31,0,0,1,447.44,137.3"/><path d="M298.93,264.27a4.12,4.12,0,0,1-1.77-.4,4.17,4.17,0,0,1-2.39-3.77V67.39a4.16,4.16,0,0,1,4.17-4.17,196.42,196.42,0,0,1,151.73,71.41,4.19,4.19,0,0,1-.55,5.89L301.58,263.31A4.16,4.16,0,0,1,298.93,264.27Zm4.17-192.66V251.25L441.55,136.78A188,188,0,0,0,303.09,71.61Z"/></svg>