<svg id="Layer_1" data-name="Layer 1" xmlns="http://www.w3.org/2000/svg" viewBox="0 0 600 600"><defs><style>.cls-1{fill:#0fae92;}.cls-2{fill:#fff;}</style></defs><title>Lab-Plugin-Google-PopularPosts100</title><rect class="cls-1" width="600" height="600"/><rect x="148.64" y="163.75" width="324.27" height="301.88"/><path d="M477.08,469.79H144.47V159.58H477.08ZM152.8,461.46H468.74V167.91H152.8Z"/><rect class="cls-2" x="127.09" y="145.53" width="323.7" height="294.77"/><path d="M455,444.47h-332V141.36H455Zm-323.7-8.33H446.62V149.69H131.26Z"/><polygon points="155.48 444.42 139.93 444.42 256 299.62 296.47 331.81 379.22 227.09 391.14 236.52 298.95 353.21 258.18 320.8 155.48 444.42"/><polygon points="405.81 204.43 394.85 269.41 379.9 236.69 344.72 229.16 405.81 204.43"/><path d="M394.85,273.58a4.17,4.17,0,0,1-3.79-2.43L377,240.33l-33.13-7.1a4.17,4.17,0,0,1-.69-7.94l61.08-24.73a4.17,4.17,0,0,1,5.67,4.56l-11,65a4.14,4.14,0,0,1-4.11,3.47Zm-36-45.65,21.91,4.69a4.18,4.18,0,0,1,2.92,2.34l9.3,20.37,7.46-44.25Z"/></svg>